<?xml version="1.0" encoding="utf-8"?>
<!-- Generator: Adobe Illustrator 24.0.0, SVG Export Plug-In . SVG Version: 6.00 Build 0)  -->
<svg version="1.1" id="Layer_1" xmlns="http://www.w3.org/2000/svg" xmlns:xlink="http://www.w3.org/1999/xlink" x="0px" y="0px"
	 viewBox="0 0 2469 2500" style="enable-background:new 0 0 2469 2500;" xml:space="preserve">
<style type="text/css">
	.st0{fill-rule:evenodd;clip-rule:evenodd;fill:#2E3192;}
	.st1{fill-rule:evenodd;clip-rule:evenodd;fill:#FFF100;}
</style>
<g>
	<path class="st0" d="M409.6-0.1H2057l21.4,0.4l20.8,1.8l20.7,2.6l20.3,3.6l19.9,4.7l19.6,5.6l19.1,6.5l18.7,7.5l18.2,8.3l17.7,9.2
		l17.3,10.1l16.7,10.8l16.1,11.5l15.6,12.5l15,13.2l14.2,13.7l13.7,14.5l12.9,15l12.4,15.8l11.4,16.4l10.6,16.9l9.9,17.5l9.2,17.9
		l8.4,18.5l7.2,18.9l6.5,19.3l5.5,19.9l4.7,20.1l3.6,20.5l2.6,20.7l1.7,21.2l0.5,21.5v1666.8l-0.5,21.4l-1.7,21.1l-2.6,20.9
		l-3.6,20.5l-4.6,20.2l-5.5,19.8l-6.5,19.2l-7.2,18.9l-8.4,18.6l-9.2,17.8l-9.9,17.5l-10.6,16.9l-11.4,16.4l-12.4,15.6l-12.9,15.2
		l-13.7,14.5l-14.2,13.8l-15,13.1l-15.6,12.3l-16.1,11.6l-16.7,10.8l-17.3,10l-17.7,9.2l-18.2,8.4l-18.7,7.3l-19.1,6.6l-19.6,5.6
		l-19.9,4.7l-20.3,3.6l-20.7,2.6l-20.8,1.7l-21.4,0.5H409.6l-21.3-0.5l-20.8-1.7l-20.7-2.6l-20.2-3.6l-20.1-4.7l-19.5-5.6l-19.2-6.6
		l-18.7-7.3l-18.4-8.4l-17.8-9.2l-17.1-10L179,2429l-16.1-11.6l-15.6-12.3l-15-13.1l-14.2-13.7l-13.7-14.5l-12.8-15.2l-12.2-15.6
		l-11.6-16.4l-10.7-16.9l-9.9-17.5l-9.1-17.8l-8.3-18.6l-7.3-18.9l-6.5-19.2l-5.6-19.8l-4.6-20.2l-3.5-20.5l-2.6-20.9L-2,2105
		l-0.5-21.4V416.9l0.5-21.5l1.7-21.2l2.6-20.7l3.5-20.5l4.6-20.1l5.6-19.9l6.5-19.3l7.3-18.9l8.3-18.5l9.1-17.9l9.9-17.5l10.7-16.9
		l11.6-16.4l12.2-15.8l12.8-15l13.7-14.5l14.2-13.8l15-13.2L163,82.7L179,71.2l16.8-10.8L213,50.2l17.8-9.2l18.4-8.3l18.7-7.5
		l19.2-6.6l19.5-5.6l20.1-4.7l20.2-3.6l20.7-2.6l20.8-1.8L409.6-0.1z"/>
	<path class="st1" d="M203.4,2083.3h192.2v-833.5H203.4V2083.3z M1256.6,1440.4h-11l-10.8,0.4l-10.7,0.4l-10.3,0.7l-10.2,0.6l-10,1
		l-9.9,1.1l-9.7,1.1l-9.5,1.4l-9.2,1.4l-9.2,1.5l-8.9,1.7l-8.6,1.8l-8.5,1.8l-8.4,2.1l-8.1,2.1l-7.9,2.1l-7.7,2.2l-7.4,2.3l-7.3,2.4
		l-7.1,2.4l-6.8,2.5l-6.6,2.5l-6.4,2.6l-6.2,2.5l-6,2.7l-5.7,2.6l-5.6,2.6l-5.2,2.6l-5.1,2.7l-4.8,2.7l-4.6,2.7l36.2,122.8l4.1-2.5
		l4.4-2.5l4.4-2.5l4.6-2.4l4.8-2.3l4.9-2.4l5.1-2.4l5.2-2.1l5.5-2.2l5.5-2.2l5.6-2.2l5.7-2l5.7-1.9l5.9-2l6-1.9l6-1.7l6.2-1.8
		l6.2-1.5l6.3-1.5l6.2-1.4l6.4-1.4l6.5-1.2l6.3-1.1l6.5-1.1l6.3-1l6.5-0.7l6.5-0.8l6.3-0.4l6.5-0.5l6.3-0.4l6.5-0.1h6.3l10.2,0.1
		l9.9,0.4l9.2,0.8l8.6,1l8.4,1.4l7.9,1.5l7.4,1.8l6.9,2.1l6.7,2.4l6.2,2.5l5.7,2.6l5.2,2.8l4.9,3l4.7,3.1l4.4,3.3l3.9,3.2l3.6,3.5
		l3.3,3.6l3,3.5l2.6,3.6l2.3,3.8l2.2,3.6l1.8,3.5l1.7,3.6l1.5,3.6l1,3.5l0.9,3.5l0.8,3.2l0.6,3.3l0.4,3.1l0.3,3v9.5l-23,0.2
		l-22.5,0.6l-22,1.1l-21.3,1.5l-20.7,2.1l-20.1,2.7l-19.6,2.9l-18.8,3.6l-18.2,3.9l-17.4,4.6l-17,5l-16.2,5.4l-15.4,6l-14.8,6.4
		l-14.2,6.9l-13.4,7.4l-12.6,7.8l-11.9,8.2l-11.3,8.8l-10.3,9.4l-9.7,9.7l-8.8,10.2l-8.1,10.8l-7.4,11.1l-6.3,11.6l-5.7,12.2
		l-4.8,12.5L965,1851l-3.1,13.4l-2.3,13.9l-1.2,14.5l-0.4,14.8l0.1,8.9l0.6,8.9l1.1,8.9l1.6,8.8l2,8.7l2.3,8.7l2.8,8.6l3.3,8.4
		l3.6,8.3l4.1,8.1l4.5,8l4.8,7.8l5.2,7.7l5.7,7.3l6.2,7.2l6.5,6.9l6.9,6.6l7.3,6.3l7.8,5.9l8,5.6l8.5,5.3l8.9,5l9.3,4.5l9.7,4.1
		l10,3.7l10.3,3.3l11,2.8l11.1,2.3l11.6,1.9l11.9,1.4l12.4,0.8l12.6,0.3l7.7-0.2l7.6-0.3l7.4-0.3l7.4-0.6l7.2-0.8l7.3-0.9l7.1-1.1
		l7.1-1.3l6.9-1.6l6.8-1.6l6.8-1.7l6.7-1.9l6.5-2l6.5-2.2l6.3-2.5l6.2-2.5l6-2.7l6-2.8l5.9-2.8l5.7-3.1l5.5-3.3l5.4-3.3l5.5-3.6
		l5.1-3.6l5.1-3.8l4.9-3.9l4.8-4.1l4.5-4.2l4.4-4.2l4.4-4.4l4.1-4.5l4-4.7h2.2l21,64.8h156.4v-369.4l-0.2-14l-0.7-13.7l-1.1-13.6
		l-1.5-13.5l-2-13.2l-2.6-13l-2.9-12.6l-3.6-12.4l-4.2-12.1l-4.4-11.8l-5.3-11.4l-5.7-11.1l-6.3-10.7l-6.8-10.4l-7.6-10l-8-9.5
		l-8.7-9.1l-9.4-8.5l-10-8.2l-10.7-7.7l-11.3-7.2l-12.1-6.5l-12.6-6.1l-13.4-5.4l-14-5l-15-4.3l-15.6-3.7l-16.4-3.1l-17.2-2.4
		l-18-1.7l-18.7-1.1L1256.6,1440.4L1256.6,1440.4z M1366.2,1852.8v3.8l-0.1,3.9l-0.3,3.9l-0.3,4.1l-0.5,3.9l-0.4,4.1l-0.7,3.9
		l-0.9,3.9l-0.4,1.4l-0.6,2l-0.4,1.9l-0.5,1.3l-0.6,1.6l-0.7,1.6l-1.7,3.9l-1.9,3.7l-2,3.8l-2.2,3.8l-2.3,3.6l-2.5,3.7l-2.6,3.6
		l-2.8,3.4l-3,3.4l-2.9,3.4l-3.3,3.3l-3.3,3.3l-3.4,3.1l-3.6,3l-3.9,3l-3.9,2.8l-4.1,2.7l-4,2.7l-4.3,2.3l-4.4,2.3l-4.4,2.2
		l-4.6,1.9l-4.6,1.9l-4.9,1.7l-4.9,1.4l-4.9,1.4l-5.2,1.1l-5.2,0.9l-5.3,0.8l-5.5,0.5l-5.6,0.5h-10.5l-4.8-0.3l-4.7-0.3l-4.6-0.6
		l-4.4-0.8l-4.4-0.8l-4.3-1.1l-4.2-1.3l-3.9-1.3l-4-1.6l-3.7-1.7l-3.6-1.9l-3.6-1.9l-3.2-2.2l-3.3-2.3l-2.9-2.3l-3-2.7l-2.6-2.8
		l-2.6-2.8l-2.3-3.1l-2.2-3.3l-2.1-3.3l-1.9-3.6l-1.7-3.6l-1.4-3.8l-1.4-4.1l-1.1-4.1l-0.9-4.2l-0.8-4.5l-0.4-4.5l-0.3-4.7l-0.1-4.8
		l0.1-5.5l0.4-5.2l0.8-5.2l0.9-5l1.2-4.7l1.6-4.7l1.8-4.4l2-4.4l2.3-4.2l2.5-3.9l2.8-3.9l3-3.8l3.3-3.6l3.6-3.3l3.7-3.3l4-3.1
		l4.2-3.1l4.3-2.8l4.7-2.7l4.8-2.7l4.9-2.5l5.2-2.3l5.2-2.2l5.6-2l5.8-2l5.9-1.7l6-1.7l6.3-1.7l6.3-1.4l6.7-1.4l6.6-1.3l7-1.1
		l6.5-0.9l6.8-0.9l6.8-0.8l7.1-0.8l7.1-0.5l7.4-0.6l7.4-0.3l7.6-0.3l4.6-0.2l4.6-0.1l4.8-0.2h23.9L1366.2,1852.8z M2072.8,1458.8
		v371.6l-0.3,5.3l-0.5,5.2l-0.7,5l-0.8,5l-1.1,4.7l-1.4,4.7l-1.7,4.4l-1.4,3.6l-1.7,3.6l-1.8,3.6l-1.9,3.6l-2,3.4l-2.2,3.6l-2.3,3.6
		l-2.5,3.4l-2.6,3.4l-2.6,3.4l-3,3.4l-2.9,3.3l-3.1,3.1l-3.3,3.1l-3.4,3l-3.6,3l-3.7,2.8l-3.7,2.8l-4,2.5l-4,2.5l-4.4,2.2l-4.3,2.2
		l-4.5,2l-4.6,1.7l-4.7,1.7l-4.9,1.4l-5.2,1.3l-5.2,0.9l-5.2,0.9l-5.6,0.5l-5.5,0.5h-5.9l-7.1-0.2l-6.9-0.5l-6.8-0.8l-6.5-1.3
		l-6.2-1.4l-6-1.9l-5.7-2.2l-5.4-2.5l-5.2-2.7l-4.9-3.1l-4.8-3.4l-4.5-3.7l-4.1-3.9l-4.1-4.4l-3.7-4.5l-3.6-4.8l-3.4-5.2l-3-5.5
		l-2.8-5.8l-2.8-5.9l-2.3-6.3l-2.3-6.6l-2-6.9l-1.7-7l-1.5-7.3l-1.4-7.5l-1.1-7.8l-0.9-8.1l-0.7-8.3l-0.5-8.6l-0.3-8.7l-0.1-9.1
		v-330.5h-187.5v374.4l0.3,8.9l0.4,8.6l0.4,8.6l0.7,8.4l0.7,8.3l0.9,8l0.9,8l1.2,7.7l1.2,7.5l1.4,7.3l1.7,7.2l1.7,7l1.8,6.9l1.9,6.7
		l2.1,6.4l2.2,6.4l2.5,6.3l2.3,6.1l2.6,5.9l2.6,5.8l2.6,5.6l3,5.5l2.9,5.5l2.9,5.2l3.1,5.2l3.3,5l3.3,4.7l3.4,4.7l3.6,4.5l3.6,4.4
		l3.7,4.2l3.9,4.2l4,3.9l4,3.9l4.1,3.6l4.3,3.6l4.2,3.4l4.4,3.3l4.5,3.1l4.6,3l4.6,2.8l4.8,2.6l4.8,2.7l4.9,2.3l5.1,2.3l5.1,2l5.3,2
		l5.4,1.9l5.2,1.7l5.6,1.7l5.4,1.4l5.7,1.4l5.5,1.3l5.8,1.3l5.9,0.9l5.8,0.9l5.9,0.8l6,0.6l6,0.6l6.2,0.5l6.2,0.2l6.3,0.3h11.9
		l5.4-0.2l5.2-0.1l5.2-0.3l5.3-0.5l5.1-0.5l5.1-0.5l4.9-0.8l4.8-0.6l4.8-0.9l4.8-0.8l4.6-1.1l4.5-0.9l4.5-1.3l4.4-1.3l4.4-1.3
		l8.3-2.8l8.2-3l7.7-3.1l7.6-3.1l7.3-3.4l7-3.4l6.6-3.8l6.3-3.7l6-3.9l5.9-3.9l5.6-4.1l5.4-4.1l5.1-4.2l4.8-4.4l4.5-4.4l4.3-4.5
		l4.1-4.4l3.9-4.4l3.5-4.2l3.4-4.1l3.3-3.9l2.9-3.9l2.6-3.6l2.5-3.8l24.1,88.8h152.3v-624.6L2072.8,1458.8z M575.9,1249.8v208.6
		h-87.6v142.4h87.6v254l0.1,7.8l0.2,7.7l0.2,7.7l0.3,7.3l0.5,7.3l0.6,7.2l0.6,7l0.8,7l0.8,6.7l0.9,6.7l1.1,6.6l1.2,6.4l1.2,6.3
		l1.4,6.3l1.4,5.9l1.5,5.9l1.7,5.8l1.9,5.6l1.9,5.5l2,5.3l2.2,5.3l2.2,5l2.3,5l2.5,4.7l2.5,4.7l2.6,4.5l2.8,4.4l2.9,4.4l2.9,4.1
		l3.1,3.9l3.2,3.9l3.2,3.6l3.1,3.1l3.1,3.1l3.2,3l3.2,3l3.5,2.8l3.6,2.8l3.9,2.8l3.9,2.7l3.9,2.7l4.2,2.5l4.2,2.3l4.3,2.5l4.5,2.2
		l4.5,2.2l4.8,2.2l4.6,1.9l4.9,2l4.9,1.7l5.1,1.7l5.1,1.6l5.3,1.6l5.4,1.2l5.4,1.3l5.6,1.1l5.5,1.1l5.7,0.9l5.7,0.6l5.9,0.6l5.9,0.6
		l6,0.3l6,0.2l6.2,0.1l10.2-0.2l9.4-0.3l8.9-0.5l8-0.6l7.6-0.8l7-0.9l6.6-1.1l6-1.3l5.9-1.3l5.4-1.4l5.1-1.6l5.1-1.6l9.6-3.4
		l9.4-3.6v-145.2l-2.5,0.9l-3.3,0.9l-3.9,0.9l-4.8,0.8l-5.4,0.8l-6,0.5l-6.5,0.5l-7,0.2l-6.2-0.2l-5.7-0.3l-5.5-0.6l-5.2-0.9
		l-4.9-1.1l-4.7-1.3l-4.5-1.6l-4.1-1.9l-3.9-2l-3.7-2.2l-3.6-2.7l-3.1-2.7l-3-3l-2.8-3.1l-2.6-3.4l-2.3-3.8l-2.2-3.7l-2-4.2
		l-1.8-4.2l-1.7-4.5l-1.4-4.9l-1.4-4.8l-1.1-5.3l-1.1-5.3l-0.7-5.6l-0.8-5.9l-0.6-5.9l-0.5-6.3l-0.3-6.6l-0.3-6.6l-0.1-6.9v-228.4
		h119.2v-142.4H762.5v-208.6L575.9,1249.8z M2001.9,1249.7L1886,1418.2h134l163.3-168.5H2001.9z"/>
</g>
</svg>
