<svg id="Camada_1" data-name="Camada 1" xmlns="http://www.w3.org/2000/svg" viewBox="0 0 341 371.5"><defs><style>.cls-1{fill:#fff;stroke: white;
    stroke-width: 10;}</style></defs><title>open_finance</title><path class="cls-1" d="M407.61,585.75c-41,0-76.91-13.83-106.73-41.08l-2.34-2.15,55-55,2.14,2c14.17,13,31.88,19.64,52.67,19.64,22.75,0,41.94-8,57-23.75S488.1,449,488.1,424s-7.52-45.49-22.36-61c-12.95-13.53-29.26-21.24-48.5-23l-2.77-.25V262.34l3.23.19A163.81,163.81,0,0,1,489.17,284,158.31,158.31,0,0,1,549,343.11h0a159.69,159.69,0,0,1,21.49,81.82,164.39,164.39,0,0,1-21.2,79.47,157,157,0,0,1-59.41,60C465.11,578.57,437.43,585.75,407.61,585.75ZM307.36,542.3c28.17,24.8,61.89,37.36,100.25,37.36,28.74,0,55.41-6.91,79.25-20.54A151,151,0,0,0,544,501.39a158.38,158.38,0,0,0,20.41-76.52,153.61,153.61,0,0,0-20.68-78.73,152,152,0,0,0-57.56-56.87,157.74,157.74,0,0,0-65.61-20.43v65.38c19.54,2.32,36.22,10.56,49.58,24.52,15.95,16.7,24.05,38.66,24.05,65.24s-8.24,48.68-24.48,65.66-36.91,25.63-61.4,25.63c-21.31,0-39.67-6.49-54.61-19.31Z" transform="translate(-229.5 -214.25)"/><path class="cls-1" d="M352.37,362.8l-78.86-78.86,1.63-2.12c30.62-39.8,74.68-63.71,124.06-67.33l3.27-.24V339.77l-2.75.27a74,74,0,0,0-45.21,20.68ZM281.6,283.42l70.89,70.87a79.54,79.54,0,0,1,43.89-20V220.82C350.94,225,310.38,247.15,281.6,283.42Z" transform="translate(-229.5 -214.25)"/><path class="cls-1" d="M329.41,419.74H231.23l-.37-2.63c-5.62-40.73,6.37-87.67,31.31-122.5l2.09-2.91,80.37,80.36-1.38,2.08c-8.07,12.1-12.67,26.47-13.67,42.75Zm-92.85-6.09h87.16c1.34-15.28,5.74-29,13.12-40.79l-71.78-71.77C242.92,333.63,232.13,376.17,236.56,413.65Z" transform="translate(-229.5 -214.25)"/><path class="cls-1" d="M290.43,533.64l-2.13-1.75c-21.81-17.88-49.48-49.14-57.42-96.6l-.59-3.54h99.27l.25,2.77c1.43,16.13,6.24,30.22,14.31,41.88l1.45,2.09Zm-52.91-95.81C245.63,480,270,508.42,290,525.42l47.67-47.67c-7.38-11.41-12-24.82-13.68-39.92Z" transform="translate(-229.5 -214.25)"/></svg>