<svg id="svg859" xmlns="http://www.w3.org/2000/svg" viewBox="0 0 222.57 222.57"><defs><style>.cls-1{fill:#ed7000;}</style></defs><title>pix</title><g id="layer1"><path id="path2376" class="cls-1" d="M173.57,186.55A32.51,32.51,0,0,1,150.45,177L117.07,143.6a6.34,6.34,0,0,0-8.77,0L74.79,177.1a32.48,32.48,0,0,1-23.12,9.57H45.1L87.38,229a33.79,33.79,0,0,0,47.81,0l42.41-42.4Z" transform="translate(0 -16.29)"/><path id="path2380" class="cls-1" d="M51.67,68.47A32.48,32.48,0,0,1,74.79,78l33.51,33.51a6.2,6.2,0,0,0,8.77,0l33.38-33.39a32.51,32.51,0,0,1,23.12-9.57h4l-42.4-42.4a33.82,33.82,0,0,0-47.82,0L45.1,68.47Z" transform="translate(0 -16.29)"/><path id="path2384" class="cls-1" d="M212.67,103.66,187,78a4.77,4.77,0,0,1-1.82.37H173.57a23,23,0,0,0-16.17,6.7L124,118.49a16,16,0,0,1-22.66,0L67.85,85a23,23,0,0,0-16.18-6.71H37.35a4.92,4.92,0,0,1-1.72-.34L9.9,103.66a33.82,33.82,0,0,0,0,47.82L35.63,177.2a4.92,4.92,0,0,1,1.72-.34H51.67a23,23,0,0,0,16.18-6.7l33.5-33.51a16.43,16.43,0,0,1,22.67,0L157.4,170a23,23,0,0,0,16.17,6.71h11.65a5,5,0,0,1,1.82.36l25.63-25.62a33.82,33.82,0,0,0,0-47.82" transform="translate(0 -16.29)"/></g></svg>