<svg xmlns="http://www.w3.org/2000/svg" viewBox="0 0 256 82.67"><defs><style>.cls-1{fill:#1a1f71;}</style></defs><g id="Layer_2" data-name="Layer 2"><g id="Layer_1-2" data-name="Layer 1"><path class="cls-1" d="M97.2,1.46l-33.52,80H41.81L25.32,17.6c-1-3.92-1.87-5.36-4.91-7C15.43,7.88,7.22,5.35,0,3.78L.49,1.46h35.2a9.64,9.64,0,0,1,9.54,8.15L54,55.88,75.46,1.46Zm29.56,0-17.11,80H89l17.1-80Zm56.11,53.85c.09-21.1-29.17-22.27-29-31.7.07-2.86,2.8-5.91,8.78-6.69a39.08,39.08,0,0,1,20.4,3.58l3.62-17A55.77,55.77,0,0,0,167.34,0c-20.45,0-34.83,10.86-35,26.43-.13,11.51,10.28,17.93,18.1,21.76,8.07,3.92,10.77,6.44,10.73,9.94-.05,5.36-6.43,7.74-12.37,7.82-10.4.17-16.43-2.81-21.24-5.05l-3.76,17.53c4.84,2.22,13.76,4.15,23,4.24,21.74,0,36-10.73,36-27.36Zm54,26.11H256l-16.71-80H221.64a9.42,9.42,0,0,0-8.81,5.86l-31,74.1h21.73l4.31-12h26.54ZM213.78,53.09l10.9-30,6.25,30Z"/></g></g></svg>